<svg t="1606462880905" class="icon" viewBox="0 0 1024 1024" version="1.1" xmlns="http://www.w3.org/2000/svg" p-id="655" width="64" height="64"><path d="M512 512m-512 0a512 512 0 1 0 1024 0 512 512 0 1 0-1024 0Z" fill="#FE4732" p-id="656"></path><path d="M294.12766 250.553191h152.510638c23.965957 0 43.574468 19.608511 43.574468 43.574469v152.510638c0 23.965957-19.608511 43.574468-43.574468 43.574468H294.12766c-23.965957 0-43.574468-19.608511-43.574469-43.574468V294.12766c0-23.965957 19.608511-43.574468 43.574469-43.574469zM530.519149 339.880851l92.595745-92.595745c17.429787-17.429787 44.66383-17.429787 62.093617 0l92.595744 92.595745c17.429787 17.429787 17.429787 44.66383 0 62.093617l-92.595744 92.595745c-17.429787 17.429787-44.66383 17.429787-62.093617 0l-92.595745-92.595745c-17.429787-17.429787-17.429787-45.753191 0-62.093617zM294.12766 533.787234h152.510638c23.965957 0 43.574468 19.608511 43.574468 43.574468v152.510638c0 23.965957-19.608511 43.574468-43.574468 43.574469H294.12766c-23.965957 0-43.574468-19.608511-43.574469-43.574469V577.361702c0-23.965957 19.608511-43.574468 43.574469-43.574468zM577.361702 533.787234h152.510638c23.965957 0 43.574468 19.608511 43.574469 43.574468v152.510638c0 23.965957-19.608511 43.574468-43.574469 43.574469H577.361702c-23.965957 0-43.574468-19.608511-43.574468-43.574469V577.361702c0-23.965957 19.608511-43.574468 43.574468-43.574468z" fill="#FFFFFF" p-id="657"></path></svg>