<svg t="1606463185378" class="icon" viewBox="0 0 1024 1024" version="1.1" xmlns="http://www.w3.org/2000/svg" p-id="4994" width="64" height="64"><path d="M511.926868 511.926868H0a511.926868 511.926868 0 1 0 511.926868-511.926868 511.926868 511.926868 0 0 0-511.926868 511.926868z" fill="#E31D1A" p-id="4995"></path><path d="M303.645765 435.284102c1.023854 13.310099 2.486502 26.69333 2.998429 40.149693a65.819169 65.819169 0 0 1-29.252964 59.16412 143.632053 143.632053 0 0 1-51.192687 23.6949 27.717183 27.717183 0 0 1-34.079703-34.518497 139.756035 139.756035 0 0 1 13.748893-35.834881 337.067276 337.067276 0 0 0 33.640909-86.296243 93.975146 93.975146 0 0 1 5.923725-16.454792 19.818883 19.818883 0 0 1 23.621768-10.896729 111.600057 111.600057 0 0 1 19.818883 8.410227c10.092273 5.338666 19.892015 11.335523 29.838023 17.039851 6.06999-6.581917 11.920583-13.456363 18.20997-19.818883a260.570776 260.570776 0 0 1 77.37409-49.144979 625.794029 625.794029 0 0 1 135.806884-47.389802 518.435652 518.435652 0 0 1 66.550493-9.214683q39.930296-3.144694 80.006856-2.340237a229.270104 229.270104 0 0 1 100.264534 21.427796 55.726896 55.726896 0 0 1 34.372233 40.149693 162.353949 162.353949 0 0 1 0 42.124268 232.853592 232.853592 0 0 1-21.500929 66.916154 35.103557 35.103557 0 0 1-14.626482 13.529496 142.973861 142.973861 0 0 1-46.365948 15.796601 249.088987 249.088987 0 0 1-133.832309-10.896729 177.199829 177.199829 0 0 1-65.819169-45.854021c-1.974575-1.974575-3.583488-4.680474-5.996857-5.923725s-6.655049-2.267105-8.48336-1.023854a9.799743 9.799743 0 0 0-2.486502 8.263962 20.62334 20.62334 0 0 0 5.265534 8.629625 194.020283 194.020283 0 0 0 100.703328 59.310384 254.720183 254.720183 0 0 0 140.706756-5.046137c2.632767-0.877589 5.265533-1.901443 7.825168-3.071561a32.76332 32.76332 0 0 1 8.410227-3.144693c-5.119269 7.313241-9.946008 15.138409-15.284674 22.451649a263.861734 263.861734 0 0 1-140.414226 99.82574 210.548207 210.548207 0 0 1-111.234395 0 399.888016 399.888016 0 0 1-167.326954-82.859021 171.129839 171.129839 0 0 1-39.564633-44.537637 85.27239 85.27239 0 0 1-8.995287-21.574061 13.675761 13.675761 0 0 0-9.068419-11.335523z m449.47179-148.385659c-7.313241 0.658192-14.626482 0.950721-21.500929 2.047708a61.796886 61.796886 0 0 0-30.130553 12.578774 11.554921 11.554921 0 0 0 1.755178 20.33081 49.218112 49.218112 0 0 0 11.116127 4.314812 137.123268 137.123268 0 0 0 52.582202 1.535781 107.943437 107.943437 0 0 0 26.4008-7.313241 14.626482 14.626482 0 0 0 9.946008-14.626482c0-6.874447-5.850593-9.360948-10.823597-11.701186a93.17069 93.17069 0 0 0-39.418369-7.166976z m-206.087131 80.445651a17.478646 17.478646 0 0 0 18.5025-16.67419 17.91744 17.91744 0 0 0-18.575632-16.747322 16.820454 16.820454 0 1 0 0 33.421512z m80.445651 400.985002h-13.96829c-1.243251 0-2.925296-2.267105-3.290959-3.802885-3.364091-13.236966-6.216255-26.766462-9.872875-39.857164a51.192687 51.192687 0 0 0-7.313241-14.626482 10.01914 10.01914 0 0 0-17.259249-1.316383 85.491787 85.491787 0 0 0-12.432509 20.550207 288.653621 288.653621 0 0 0-10.823597 33.275246c-1.316383 4.607342-2.925296 7.313241-8.044565 6.289388a65.087845 65.087845 0 0 0-9.507213 0l2.12084-58.505928a68.086273 68.086273 0 0 0-10.6042 5.484931 208.866162 208.866162 0 0 0-17.551778 15.577203c-9.946008 10.238537-19.599486 20.842737-29.252964 31.446936-6.06999 6.655049-8.19083 7.313241-18.648765 4.826739 12.359377-21.135266 24.645622-42.051136 37.297529-63.405799a35.761748 35.761748 0 0 1-27.278388-20.915869 32.031995 32.031995 0 0 1 0.731324-23.548636c0.731324 2.705899 1.316383 5.484931 2.12084 8.19083a23.329239 23.329239 0 0 0 30.203685 17.186116 18.795029 18.795029 0 0 0 9.507213-7.313241c12.13998-19.745751 23.841166-39.784031 35.396086-59.749179a6.581917 6.581917 0 0 1 8.19083-3.65662 136.757606 136.757606 0 0 0 57.262677 0.804456c4.168547-1.096986 8.19083-2.852164 12.651907-4.461077v157.81974z" fill="#FFFFFF" p-id="4996"></path></svg>