<svg t="1606500525871" class="icon" viewBox="0 0 1024 1024" version="1.1" xmlns="http://www.w3.org/2000/svg" p-id="5913" id="mx_n_1606500525872" width="64" height="64"><path d="M0 512c0 283.105882 228.894118 512 512 512s512-228.894118 512-512S795.105882 0 512 0C228.894118 3.011765 0 231.905882 0 512z m0 0" fill="#4690f8" p-id="5914" data-spm-anchor-id="a313x.7781069.0.i14" class="selected"></path><path d="M638.494118 771.011765c-6.023529-3.011765-12.047059-3.011765-18.070589-3.011765-36.141176 12.047059-72.282353 18.070588-108.423529 18.070588-177.694118 0-319.247059-126.494118-319.247059-280.094117 0-153.6 144.564706-280.094118 319.247059-280.094118 177.694118 0 319.247059 126.494118 319.247059 280.094118 0 84.329412-45.176471 162.635294-111.435294 213.835294-6.023529 3.011765-9.035294 12.047059-6.02353 18.070588l15.058824 60.235294c3.011765 18.070588-3.011765 24.094118-21.082353 15.058824l-69.270588-42.164706z m0 0" fill="#FFFFFF" p-id="5915" data-spm-anchor-id="a313x.7781069.0.i13" class=""></path><path d="M638.494118 587.294118c0 3.011765-36.141176 87.341176-126.494118 87.341176-93.364706 0-126.494118-84.329412-126.494118-87.341176-3.011765-9.035294 0-18.070588 9.035294-24.094118 9.035294-3.011765 18.070588 0 21.082353 9.035294 18.070588 42.164706 57.223529 66.258824 96.376471 66.258824 69.270588 0 96.376471-66.258824 96.376471-66.258824 3.011765-6.023529 6.023529-9.035294 12.047058-12.047059 6.023529 0 12.047059 3.011765 15.058824 6.02353 3.011765 6.023529 6.023529 15.058824 3.011765 21.082353z m0 0" fill="#4690f8" p-id="5916" data-spm-anchor-id="a313x.7781069.0.i15" class="selected"></path></svg>