<svg t="1607676525303" class="icon" viewBox="0 0 1024 1024" version="1.1" xmlns="http://www.w3.org/2000/svg" p-id="754" width="64" height="64"><path d="M799.4 886.2c-8.2 4.4-17.9 5.3-26.8 2.6-8.9-2.7-16.4-8.9-20.7-17.2-9.1-17.2-2.6-38.5 14.5-47.7 115.5-61.7 187.3-181.3 187.3-312 0.1-130.6-72-250.6-187.3-312-17.1-9.2-23.6-30.5-14.5-47.7 4.3-8.3 11.8-14.4 20.7-17.2 8.9-2.7 18.5-1.8 26.8 2.6 138.3 73.7 224.7 217.7 224.6 374.3 0.1 156.7-86.3 300.7-224.6 374.3z m0 0" fill="#ffffff" p-id="755"></path><path d="M803.9 380.7c24.3 39.5 37.1 84.9 37 131.2 0 46.6-12.8 92-37 131.2-23.4 38.1-56.8 68.9-96.6 89.3-4.9 2.5-10.3 3.8-15.8 3.8-13.3 0-25.4-7.5-31.3-19.3-8.8-17.4-1.9-38.5 15.4-47.4 58.7-29.9 95.1-90.2 95.1-157.6 0-67.3-36.5-127.7-95.2-157.6-17.3-8.9-24.2-30-15.5-47.4 4.2-8.3 11.5-14.7 20.4-17.6 8.9-2.9 18.5-2.2 26.8 2 39.8 20.5 73.2 51.4 96.7 89.4z m-277 567.9c-12.6 5.7-27.4 3.4-37.7-5.8-0.5-0.4-46.2-41.2-97.2-83-89.1-73-115.8-84.9-120.9-86.7l-123 0.1h-43.4C46.9 773.3 0 726 0 668V357.8c0-27.8 7.8-52.5 22.7-71.4 17.2-21.9 42.6-33.9 71.5-33.9h154.4c5.8-1.9 34.6-14.1 133.4-87.2 36.7-27.2 73-55.1 108.7-83.5 10.5-8.4 25-10 37.1-4.2 12.2 5.9 19.9 18.3 19.9 31.8v807.2c-0.1 13.7-8.2 26.3-20.8 32z m0 0" fill="#ffffff" p-id="756"></path></svg>