<svg t="1606463130052" class="icon" viewBox="0 0 1024 1024" version="1.1" xmlns="http://www.w3.org/2000/svg" p-id="2760" width="64" height="64"><path d="M270.4 283.2c0 6.4-2.4 10.4-2.4 15.2-2.4 6.4 6.4 14.4 0 19.2-4 10.4-8 17.6-11.2 25.6-2.4 2.4-2.4 6.4 0 10.4s8 2.4 11.2 2.4c4 2.4 6.4 4 10.4 4s6.4-2.4 10.4-2.4 8 2.4 10.4 0c2.4 0 4-2.4 8-4h10.4c4-2.4 4-8 2.4-11.2-8-7.2-12.8-14.4-16.8-22.4-6.4-8 4-17.6 0-25.6-2.4-2.4-2.4-8-2.4-11.2h-4c-1.6 4.8-4.8 8.8-10.4 11.2-4.8-1.6-8.8-4.8-11.2-10.4-1.6-0.8-2.4-0.8-4.8-0.8zM364.8 299.2c2.4 4.8 4.8 8.8 8 14.4 2.4 0 4-2.4 6.4-2.4v47.2c17.6 2.4 36 2.4 52.8 0 1.6-15.2 1.6-30.4 0-47.2 2.4 0 4 2.4 6.4 2.4 4-4 8-10.4 10.4-15.2-10.4-2.4-19.2-8-29.6-10.4-2.4 6.4-8 10.4-14.4 10.4s-10.4-6.4-11.2-10.4c-11.2 2.4-20.8 6.4-28.8 11.2zM606.4 283.2c-2.4 8.8-2.4 19.2 0 29.6 4 10.4 14.4 15.2 19.2 23.2 4 4 2.4 10.4 2.4 14.4-4.8 1.6-10.4 4-15.2 8h36c-6.4-2.4-10.4-6.4-15.2-8 0-4-2.4-11.2 2.4-14.4 8.8-6.4 15.2-14.4 19.2-23.2 4-10.4 0-19.2-2.4-29.6h-46.4zM720.8 275.2c1.6 8 6.4 12.8 14.4 15.2h11.2c-2.4-4-2.4-10.4-6.4-11.2-5.6-5.6-12.8-4-19.2-4zM752.8 281.6c-2.4 2.4-4 6.4-6.4 10.4 4 0 10.4 0 11.2-2.4 2.4-2.4 4-6.4 6.4-10.4-4 0-8.8 0.8-11.2 2.4zM740 296c-17.6 2.4-30.4 20.8-28 38.4v1.6c2.4 16.8 17.6 29.6 34.4 27.2 8.8-1.6 16.8-4.8 23.2-11.2 8-10.4 10.4-23.2 6.4-36-5.6-15.2-20.8-23.2-36-20zM776.8 426.4c-12.8 1.6-24 10.4-29.6 21.6-2.4 8 6.4 11.2 10.4 17.6 6.4 4.8 14.4 8.8 21.6 10.4 4.8 4 11.2 8 17.6 11.2 1.6-4.8 2.4-10.4 2.4-15.2 6.4-4 12.8-8.8 19.2-14.4 6.4 2.4 10.4 8 14.4 10.4 2.4 0 6.4 0 6.4-2.4 0-4.8-1.6-8.8-4-14.4 2.4-4 4-8.8 4-14.4 0-4-4-6.4-8-4s-8 4.8-10.4 10.4c-8-4-14.4-10.4-21.6-14.4v-15.2c-9.6 0.8-16 8.8-22.4 12.8zM228 416c-1.6 4-4 6.4-6.4 10.4-1.6 2.4-4.8 4-8 4-4.8 4-8 10.4-8 17.6-2.4 6.4-2.4 12.8 0 19.2 0 6.4 6.4 10.4 11.2 10.4h44.8c4 0 8-1.6 10.4-4 4-4 2.4-11.2 2.4-17.6-1.6-8-2.4-15.2-6.4-23.2l-11.2-8c-1.6-6.4-6.4-11.2-14.4-14.4-5.6 0.8-10.4 3.2-14.4 5.6z" fill="#ED291E" p-id="2761"></path><path d="M236.8 416c6.4-2.4 11.2 4 14.4 10.4h-23.2c4-4 4.8-8 8.8-10.4zM620.8 528.8c-2.4 4-2.4 10.4-4 14.4 4-2.4 8-2.4 11.2-4 6.4-1.6 14.4 0 19.2 4-2.4-4-2.4-10.4-4-14.4h-22.4zM624.8 545.6c-8 2.4-14.4 8-17.6 15.2-2.4 11.2 1.6 23.2 11.2 29.6 8.8 4.8 21.6 4 29.6-4 10.4-8 11.2-23.2 2.4-33.6-2.4-2.4-4.8-4.8-8.8-6.4-5.6-2.4-10.4-0.8-16.8-0.8zM616.8 596.8c2.4 4 2.4 10.4 4 14.4h21.6c1.6-4.8 2.4-8.8 4-14.4-8 6.4-19.2 3.2-29.6 0zM742.4 522.4v15.2h6.4c2.4-4 0-6.4 0-10.4 4-4.8-4.8-2.4-6.4-4.8zM720.8 524.8v12.8c2.4 0 4 2.4 6.4 2.4-2.4-6.4 4-15.2-6.4-15.2zM765.6 524.8c-2.4 4 0 8 0 11.2 0 2.4 6.4 2.4 6.4 0 2.4-4 0-8 0-11.2h-6.4zM715.2 545.6v56c0 2.4 4 4 6.4 4h44.8c4 0 8 2.4 10.4-2.4 1.6-4 2.4-8 2.4-11.2 4-2.4 6.4-2.4 10.4-4 6.4-4.8 8-12.8 4-19.2-4-4.8-8.8-8.8-15.2-10.4V544h-62.4v1.6zM311.2 532.8c-4 6.4-10.4 10.4-11.2 15.2-6.4 10.4-8 21.6-15.2 30.4-11.2 4-27.2 4-36.8 15.2 11.2 8 25.6 10.4 40 6.4 8-2.4 10.4-10.4 11.2-15.2 1.6-8 4-14.4 10.4-19.2 2.4-2.4 4 2.4 4 4v33.6h4c0-11.2-2.4-25.6 4-36.8 4-6.4 4.8-12.8 4-19.2-4-7.2-8-12-14.4-14.4zM392 533.6c-4 2.4-4 6.4-8 8-4.8 0-10.4 0-15.2 2.4-2.4 0-4 4-4 6.4v44.8c0 4 6.4 4 8 4h64c4 0 4-4 4-8v-44.8c-4.8-2.4-11.2-4.8-17.6-4-2.4-4-6.4-6.4-10.4-8l-20.8-0.8zM452.8 648.8h8c-2.4-2.4-2.4-4-4-4l-4 4zM424.8 667.2c-4.8 8-8.8 15.2-11.2 23.2 2.4 0 6.4-2.4 8-2.4 6.4 0 11.2 2.4 15.2 0s8.8-2.4 14.4 0c0 10.4 0 20.8-2.4 32 0 4-6.4 4-8 4l-5.6-12c-2.4 2.4-4 2.4-4 4-1.6 6.4 4 12.8 10.4 15.2 8 2.4 15.2-1.6 17.6-8.8v-33.6c6.4-1.6 11.2 0 17.6 2.4 8-2.4 14.4-2.4 21.6 0-1.6-8-4.8-15.2-10.4-21.6-4-4-8.8-8-14.4-10.4-15.2-11.2-36.8-8-48.8 8zM572 644.8c-2.4 2.4-2.4 6.4-6.4 6.4-6.4 4-11.2 10.4-17.6 14.4 2.4 1.6 4.8 2.4 8 2.4h43.2c-4-6.4-10.4-8-14.4-11.2-4.8-5.6-8.8-8.8-12.8-12zM548.8 674.4v40.8c0 2.4 0 6.4 4 6.4h44.8c1.6-4.8 2.4-11.2 2.4-17.6v-29.6c0-2.4-4-2.4-6.4-2.4-15.2 0-30.4 1.6-44.8 2.4z" fill="#ED291E" p-id="2762"></path><path d="M516 4.8C236.8 4.8 10.4 231.2 10.4 510.4c0 279.2 226.4 505.6 505.6 505.6 279.2 0 505.6-226.4 505.6-505.6C1021.6 231.2 795.2 4.8 516 4.8z m175.2 210.4l40.8 29.6c33.6 23.2 64 44.8 97.6 68.8l17.6 11.2c-52.8 36.8-104 74.4-156 113.6V215.2zM409.6 256l100 70.4c-4 2.4-6.4 4.8-10.4 8-48.8 33.6-97.6 68.8-148.8 102.4-1.6-72.8-1.6-147.2-1.6-221.6 20 13.6 40 26.4 60.8 40.8z m-94.4-25.6c6.4-6.4 14.4-11.2 21.6-15.2v222.4c-33.6-23.2-64-48.8-97.6-72.8-19.2-14.4-36.8-27.2-56-40.8 44.8-31.2 87.2-61.6 132-93.6zM183.2 340.8c51.2 36.8 100 72.8 151.2 110.4 2.4 0 0 2.4 0 2.4-51.2 34.4-100 72.8-151.2 107.2V340.8z m154.4 342.4c-30.4-21.6-60-44.8-92-68.8-21.6-15.2-43.2-29.6-62.4-44.8 51.2-36 102.4-72.8 155.2-107.2v220.8z m10.4-220.8h1.6c30.4 21.6 60 43.2 89.6 66.4 19.2 15.2 40.8 29.6 60 44.8C448 610.4 398.4 648 348 684.8V462.4z m162.4 341.6c-36.8-25.6-72.8-52.8-110.4-78.4-14.4-11.2-32-23.2-46.4-33.6 52.8-36.8 104-74.4 156-110.4v117.6c4 36.8 0.8 71.2 0.8 104.8zM505.6 536c0-16.8 0-34.4-2.4-51.2-4 0-8 0-11.2-2.4-2.4-6.4-4-10.4-6.4-15.2-8 8-6.4 19.2-8 29.6-2.4 14.4-4 27.2-6.4 40-11.2-8-21.6-15.2-30.4-23.2 6.4-2.4 14.4-4 19.2-6.4-2.4-10.4-2.4-19.2-4-29.6-4 2.4-8 6.4-11.2 8-4-10.4-6.4-21.6-10.4-30.4 8 0 14.4-1.6 21.6-4 0-8-2.4-14.4-2.4-21.6-2.4 0-4-2.4-6.4-2.4L436 408c8.8 0 14.4-1.6 19.2-4 8-10.4 10.4-21.6 15.2-30.4 4.8 8.8 10.4 19.2 14.4 29.6 4 0 8 2.4 14.4 2.4V416c6.4-2.4 11.2-2.4 19.2-4-4-14.4-10.4-27.2-14.4-40 14.4 6.4 25.6 10.4 36.8 15.2-4 8-6.4 17.6-10.4 27.2 6.4-2.4 11.2-2.4 15.2-4 2.4 0 2.4-2.4 4-4 4.8-11.2 10.4-23.2 14.4-36 10.4 6.4 17.6 14.4 27.2 19.2l-4.8 6.4c-6.4 6.4-14.4 10.4-19.2 15.2h25.6c2.4 6.4 4 14.4 6.4 19.2H584c-2.4 8-4 15.2-6.4 25.6 8 1.6 14.4 2.4 21.6 6.4 4 6.4 6.4 12.8 8 19.2-8 2.4-17.6 2.4-25.6 4l-6.4 40.8c-4 4-8.8 8-14.4 10.4-4-17.6-6.4-36-10.4-52.8-6.4 0-11.2 0-17.6-2.4-4 14.4-6.4 29.6-10.4 43.2-5.6 8-12 8-16.8 11.2z m16.8 270.4c-1.6-76.8-1.6-151.2-1.6-224 52.8 36.8 104 72.8 156 110.4-51.2 36.8-103.2 76.8-154.4 113.6z m158.4-121.6l-47.2-36c-34.4-25.6-68.8-52.8-104.8-75.2l152-111.2v222.4z m0-248c-52.8-36-107.2-72.8-160-107.2 52.8-40 107.2-76.8 160-113.6v220.8z m84.8 192c-23.2 17.6-48.8 36-72.8 52.8-1.6-72.8-1.6-147.2-1.6-221.6 52.8 36.8 104 72.8 156 110.4l-81.6 58.4z m83.2-69.6c-51.2-36.8-100-72.8-151.2-110.4 0 0-2.4-1.6 0-1.6 51.2-36.8 100-72.8 151.2-110.4v222.4z" fill="#ED291E" p-id="2763"></path><path d="M480 452h19.2l-6.4 11.2 17.6-6.4c-2.4-6.4-2.4-14.4-4-19.2-4-2.4-8-2.4-11.2-4-4-4-4-8-6.4-11.2-7.2 6.4-7.2 17.6-8.8 29.6zM536 436.8c-2.4 8-2.4 15.2-4 23.2 8-2.4 14.4-2.4 21.6-4 0-8-2.4-15.2-2.4-21.6-4.8-0.8-9.6-0.8-15.2 2.4z" fill="#ED291E" p-id="2764"></path></svg>