<svg t="1607768722265" class="icon" viewBox="0 0 1024 1024" version="1.1" xmlns="http://www.w3.org/2000/svg" p-id="985" id="mx_n_1607768722266" width="32" height="32"><path d="M586.496 512a6.144 6.144 0 0 0 6.528-5.76v-12.8a6.528 6.528 0 0 0-6.912-5.76h-51.2l55.936-52.48a6.4 6.4 0 0 0 0-8.704l-8.832-8.832a6.144 6.144 0 0 0-8.704 0L512 476.544l-61.312-58.88a6.144 6.144 0 0 0-8.704 0l-8.832 8.32a5.632 5.632 0 0 0 0 7.936l55.552 53.504h-51.2a6.528 6.528 0 0 0-6.784 6.272v12.16a6.656 6.656 0 0 0 6.912 5.888h60.8v24.32h-61.184a6.272 6.272 0 0 0-6.528 5.888v12.8a6.528 6.528 0 0 0 6.912 5.76h60.8v42.88a6.528 6.528 0 0 0 6.784 6.272h13.696a6.528 6.528 0 0 0 6.784-6.272v-43.264h61.056a6.144 6.144 0 0 0 6.528-5.76v-12.8a6.528 6.528 0 0 0-6.784-5.888h-60.8V512z" fill="#FF7B3E" p-id="986"></path><path d="M512 0A513.536 513.536 0 0 0 0 512a513.536 513.536 0 0 0 512 512 513.536 513.536 0 0 0 512-512A513.536 513.536 0 0 0 512 0z m243.2 439.04a22.4 22.4 0 0 1-13.568 24.32c-30.208 14.592-40.448 25.6-40.96 48.64s10.752 35.072 40.448 48.64a23.68 23.68 0 0 1 14.08 24.32v72.96a38.4 38.4 0 0 1-40.32 36.48h-405.76A38.4 38.4 0 0 1 268.8 657.92v-72.96a27.264 27.264 0 0 1 14.08-24.32c17.024-5.376 39.936-16 39.936-48.64 0-25.6-21.888-40.832-40.448-48.64A22.144 22.144 0 0 1 268.8 439.04v-72.96a38.4 38.4 0 0 1 40.32-36.48h405.632A38.4 38.4 0 0 1 755.2 366.08z" fill="#FF7B3E" p-id="987" data-spm-anchor-id="a313x.7781069.0.i5" class=""></path></svg>