<?xml version="1.0" standalone="no"?><!DOCTYPE svg PUBLIC "-//W3C//DTD SVG 1.1//EN" "http://www.w3.org/Graphics/SVG/1.1/DTD/svg11.dtd"><svg t="1608811524366" class="icon" viewBox="0 0 1024 1024" version="1.1" xmlns="http://www.w3.org/2000/svg" p-id="5696" width="32" height="32" xmlns:xlink="http://www.w3.org/1999/xlink"><defs><style type="text/css"></style></defs><path d="M270.57214 305.518879a36.180047 36.180047 0 0 1-30.718908-17.179833 189.547038 189.547038 0 1 1 324.425798-1.479059 35.838726 35.838726 0 0 1-49.207139 13.25464 35.838726 35.838726 0 0 1-12.515111-50.344877 117.528266 117.528266 0 1 0-201.208846 0.967077 36.066273 36.066273 0 0 1-30.718907 54.782052z" fill="#ffffff" p-id="5697" data-spm-anchor-id="a313x.7781069.0.i16" class="selected"></path><path d="M796.434331 435.220934c-31.287776 0-56.773093 29.979379-56.773092 66.898955v103.989192a8.931238 8.931238 0 0 1-17.919363 0V456.269075c0-36.919576-25.542203-66.898955-56.886866-66.898955-31.287776 0-56.773093 29.979379-56.773093 66.898955v118.495342a8.931238 8.931238 0 0 1-17.919363 0V397.220508c0-36.976463-25.485316-66.898955-56.829979-66.898955-31.287776 0-56.829979 29.979379-56.82998 66.898955v136.016497a8.931238 8.931238 0 0 1-17.862476 0v-327.099481c0-31.287776-25.59909-56.602432-56.886866-56.773093h-1.706606c-30.3207 0.91019-55.123373 26.793714-55.123373 57.74017v453.217663a8.988125 8.988125 0 0 1-9.101899 8.931238h-0.227547a8.53303 8.53303 0 0 1-6.655764-3.128778l-90.450117-104.216739a52.27903 52.27903 0 0 0-39.650146-19.000213 52.335917 52.335917 0 0 0-39.707032 19.000213c-22.527199 25.940411-22.527199 69.743298 0 95.569936l94.318424 108.881462c24.575126 28.329659 46.419683 55.350921 65.761217 79.186518 44.201095 54.440731 79.072744 97.504089 120.600157 127.312806 44.371756 31.685984 93.294461 45.850814 159.112565 45.850814 83.68058 0 148.190287-20.87748 191.594965-62.291118 41.527412-39.650146 62.8031-96.878333 62.8031-170.319278V502.119889c0-36.748916-25.371542-66.898955-56.886866-66.898955z" fill="#ffffff" p-id="5698" data-spm-anchor-id="a313x.7781069.0.i13" class="selected"></path></svg>