<?xml version="1.0" standalone="no"?><!DOCTYPE svg PUBLIC "-//W3C//DTD SVG 1.1//EN" "http://www.w3.org/Graphics/SVG/1.1/DTD/svg11.dtd"><svg t="1607769192007" class="icon" viewBox="0 0 1024 1024" version="1.1" xmlns="http://www.w3.org/2000/svg" p-id="3197" xmlns:xlink="http://www.w3.org/1999/xlink" width="200" height="200"><defs><style type="text/css"></style></defs><path d="M927.62112 408.43776H570.7264a98.17088 98.17088 0 0 0-77.71648 38.1952L336.384 649.57952a39.82848 39.82848 0 0 0-7.56224 31.77472l152.91904 169.216a39.90016 39.90016 0 0 0 59.2128 0l376.41216-416.54784a39.78752 39.78752 0 0 0 10.25536-25.58464z" fill="#F4CA1C" p-id="3198"></path><path d="M966.87616 359.32672l-183.26528-237.1072A77.92128 77.92128 0 0 0 722.36032 92.16h-425.8304a77.93152 77.93152 0 0 0-61.2608 30.05952l-183.26528 237.1072a77.13792 77.13792 0 0 0 3.85024 99.04128l396.1856 437.76a77.44 77.44 0 0 0 114.81088 0l396.19072-437.76a77.14816 77.14816 0 0 0 3.83488-99.04128z m-56.32 51.6608l-396.18048 437.76a6.656 6.656 0 0 1-9.84064 0l-396.17536-437.76a6.59968 6.59968 0 0 1-0.3328-8.47872L291.2768 165.376a6.656 6.656 0 0 1 5.25312-2.56h425.83552a6.656 6.656 0 0 1 5.24288 2.56L910.848 402.5088a6.60992 6.60992 0 0 1-0.3072 8.47872z m-237.44512 6.21568l-158.72 175.39584a6.656 6.656 0 0 1-9.84064 0L342.37952 413.43488A35.3536 35.3536 0 0 0 289.8944 460.8l162.14016 179.2a77.43488 77.43488 0 0 0 114.81088 0l158.72-175.39584a35.3536 35.3536 0 0 0-52.46976-47.40096z" fill="#595BB3" p-id="3199"></path></svg>